<mxfile host="65bd71144e">
    <diagram id="RmlRvWYQgFkK_NVbBuCd" name="Page-1">
        <mxGraphModel dx="989" dy="630" grid="1" gridSize="10" guides="1" tooltips="1" connect="1" arrows="1" fold="1" page="1" pageScale="1" pageWidth="2339" pageHeight="3300" math="0" shadow="0">
            <root>
                <mxCell id="0"/>
                <mxCell id="1" parent="0"/>
                <mxCell id="6" style="edgeStyle=none;html=1;exitX=1;exitY=1;exitDx=0;exitDy=0;entryX=0.5;entryY=0;entryDx=0;entryDy=0;fontSize=14;" parent="1" source="2" target="5" edge="1">
                    <mxGeometry relative="1" as="geometry"/>
                </mxCell>
                <mxCell id="7" style="edgeStyle=none;html=1;exitX=0;exitY=1;exitDx=0;exitDy=0;entryX=0.5;entryY=0;entryDx=0;entryDy=0;fontSize=14;" parent="1" source="2" target="4" edge="1">
                    <mxGeometry relative="1" as="geometry"/>
                </mxCell>
                <mxCell id="2" value="&lt;font style=&quot;font-size: 14px;&quot;&gt;Game Start&lt;/font&gt;" style="ellipse;whiteSpace=wrap;html=1;fillColor=#6d8764;fontColor=#ffffff;strokeColor=#3A5431;" parent="1" vertex="1">
                    <mxGeometry x="1060" y="280" width="120" height="80" as="geometry"/>
                </mxCell>
                <mxCell id="10" style="edgeStyle=none;html=1;exitX=0.5;exitY=1;exitDx=0;exitDy=0;entryX=0;entryY=0;entryDx=0;entryDy=0;fontSize=14;" parent="1" source="4" target="8" edge="1">
                    <mxGeometry relative="1" as="geometry"/>
                </mxCell>
                <mxCell id="24" style="edgeStyle=none;html=1;exitX=0;exitY=0.5;exitDx=0;exitDy=0;entryX=1;entryY=0.5;entryDx=0;entryDy=0;fontSize=18;fontColor=#f0a30a;" parent="1" source="4" target="23" edge="1">
                    <mxGeometry relative="1" as="geometry"/>
                </mxCell>
                <mxCell id="4" value="Get player's choice" style="rounded=0;whiteSpace=wrap;html=1;fontSize=14;fillColor=#6d8764;fontColor=#ffffff;strokeColor=#3A5431;" parent="1" vertex="1">
                    <mxGeometry x="960" y="440" width="120" height="60" as="geometry"/>
                </mxCell>
                <mxCell id="9" style="edgeStyle=none;html=1;exitX=0.5;exitY=1;exitDx=0;exitDy=0;entryX=1;entryY=0;entryDx=0;entryDy=0;fontSize=14;" parent="1" source="5" target="8" edge="1">
                    <mxGeometry relative="1" as="geometry"/>
                </mxCell>
                <mxCell id="16" style="edgeStyle=none;html=1;exitX=1;exitY=0.5;exitDx=0;exitDy=0;entryX=0;entryY=0.5;entryDx=0;entryDy=0;fontSize=14;" parent="1" source="5" target="15" edge="1">
                    <mxGeometry relative="1" as="geometry"/>
                </mxCell>
                <mxCell id="5" value="Get computer's choice" style="rounded=0;whiteSpace=wrap;html=1;fontSize=14;fillColor=#6d8764;fontColor=#ffffff;strokeColor=#3A5431;" parent="1" vertex="1">
                    <mxGeometry x="1160" y="440" width="120" height="60" as="geometry"/>
                </mxCell>
                <mxCell id="12" style="edgeStyle=none;html=1;exitX=0.5;exitY=1;exitDx=0;exitDy=0;fontSize=14;" parent="1" source="8" target="11" edge="1">
                    <mxGeometry relative="1" as="geometry"/>
                </mxCell>
                <mxCell id="18" style="edgeStyle=none;html=1;exitX=1;exitY=0.5;exitDx=0;exitDy=0;fontSize=14;entryX=0;entryY=0.5;entryDx=0;entryDy=0;" parent="1" source="8" target="17" edge="1">
                    <mxGeometry relative="1" as="geometry">
                        <mxPoint x="1380" y="644.8823529411766" as="targetPoint"/>
                    </mxGeometry>
                </mxCell>
                <mxCell id="8" value="compare choices &amp;amp; decide winner" style="rhombus;whiteSpace=wrap;html=1;fontSize=14;fillColor=#6d8764;fontColor=#ffffff;strokeColor=#3A5431;" parent="1" vertex="1">
                    <mxGeometry x="1045" y="570" width="150" height="150" as="geometry"/>
                </mxCell>
                <mxCell id="14" style="edgeStyle=none;html=1;exitX=0.5;exitY=1;exitDx=0;exitDy=0;fontSize=14;" parent="1" source="11" target="13" edge="1">
                    <mxGeometry relative="1" as="geometry"/>
                </mxCell>
                <mxCell id="11" value="Display results" style="rounded=0;whiteSpace=wrap;html=1;fontSize=14;fillColor=#6d8764;fontColor=#ffffff;strokeColor=#3A5431;" parent="1" vertex="1">
                    <mxGeometry x="1060" y="800" width="120" height="60" as="geometry"/>
                </mxCell>
                <mxCell id="13" value="&lt;font style=&quot;font-size: 14px;&quot;&gt;Game End&lt;/font&gt;" style="ellipse;whiteSpace=wrap;html=1;fillColor=#6d8764;fontColor=#ffffff;strokeColor=#3A5431;" parent="1" vertex="1">
                    <mxGeometry x="1060" y="960" width="120" height="80" as="geometry"/>
                </mxCell>
                <mxCell id="15" value="function (random number &amp;amp; refer to rock/paper/scissors" style="rounded=0;whiteSpace=wrap;html=1;fontSize=14;fillColor=#e3c800;fontColor=#000000;strokeColor=#B09500;" parent="1" vertex="1">
                    <mxGeometry x="1400" y="440" width="160" height="60" as="geometry"/>
                </mxCell>
                <mxCell id="19" style="edgeStyle=none;html=1;exitX=0.5;exitY=1;exitDx=0;exitDy=0;entryX=1;entryY=0.5;entryDx=0;entryDy=0;fontSize=14;" parent="1" source="17" target="11" edge="1">
                    <mxGeometry relative="1" as="geometry"/>
                </mxCell>
                <mxCell id="17" value="function:&lt;br&gt;if playerChoice === computerChoice then return &quot;Draw&quot;, &lt;br&gt;&lt;br&gt;else: list conditions for player wins &amp;amp; return &quot;player wins&quot;,&lt;br&gt;&lt;br&gt;else: return &quot;computer wins&quot;" style="rounded=0;whiteSpace=wrap;html=1;fontSize=14;fillColor=#e3c800;fontColor=#000000;strokeColor=#B09500;" parent="1" vertex="1">
                    <mxGeometry x="1400" y="547.5" width="280" height="195" as="geometry"/>
                </mxCell>
                <mxCell id="22" value="&lt;font color=&quot;#f0a30a&quot; style=&quot;font-size: 18px;&quot;&gt;MVP2 - add buttons&lt;/font&gt;" style="text;html=1;align=center;verticalAlign=middle;resizable=0;points=[];autosize=1;strokeColor=none;fillColor=none;" parent="1" vertex="1">
                    <mxGeometry x="1030" y="195" width="180" height="40" as="geometry"/>
                </mxCell>
                <mxCell id="26" style="edgeStyle=none;html=1;exitX=0.5;exitY=1;exitDx=0;exitDy=0;fontSize=18;fontColor=#f0a30a;" parent="1" source="23" target="25" edge="1">
                    <mxGeometry relative="1" as="geometry"/>
                </mxCell>
                <mxCell id="23" value="HTML: display buttons for:&lt;br&gt;👊&lt;br&gt;&amp;nbsp;🧻&lt;br&gt;✂️" style="rounded=0;whiteSpace=wrap;html=1;fontSize=14;fillColor=#f0a30a;fontColor=#000000;strokeColor=#BD7000;" parent="1" vertex="1">
                    <mxGeometry x="660" y="420" width="180" height="100" as="geometry"/>
                </mxCell>
                <mxCell id="27" style="edgeStyle=none;html=1;exitX=1;exitY=0.5;exitDx=0;exitDy=0;entryX=0;entryY=0.5;entryDx=0;entryDy=0;fontSize=18;fontColor=#f0a30a;" parent="1" source="25" target="8" edge="1">
                    <mxGeometry relative="1" as="geometry"/>
                </mxCell>
                <mxCell id="25" value="Event listener for button click and store corresponding choice to playerChoice" style="rounded=0;whiteSpace=wrap;html=1;fontSize=14;fillColor=#f0a30a;fontColor=#000000;strokeColor=#BD7000;" parent="1" vertex="1">
                    <mxGeometry x="660" y="595" width="180" height="100" as="geometry"/>
                </mxCell>
            </root>
        </mxGraphModel>
    </diagram>
</mxfile>